/* XPM */
static char * vpa_xpm[] = {
"32 32 742 2",
"  	c None",
". 	c #000000",
"+ 	c #010000",
"@ 	c #020101",
"# 	c #000001",
"$ 	c #010100",
"% 	c #020100",
"& 	c #010001",
"* 	c #000002",
"= 	c #130A07",
"- 	c #27150A",
"; 	c #301708",
"> 	c #331909",
", 	c #341B0A",
"' 	c #331C09",
") 	c #251208",
"! 	c #0B0706",
"~ 	c #090403",
"{ 	c #3E2612",
"] 	c #5E3012",
"^ 	c #703410",
"/ 	c #813D11",
"( 	c #8E4410",
"_ 	c #924712",
": 	c #9B5012",
"< 	c #A95E18",
"[ 	c #975013",
"} 	c #7F4112",
"| 	c #603713",
"1 	c #2F1B0D",
"2 	c #000003",
"3 	c #3C1F0F",
"4 	c #763B13",
"5 	c #8F4814",
"6 	c #914915",
"7 	c #813709",
"8 	c #843809",
"9 	c #8F410C",
"0 	c #95490E",
"a 	c #9F540F",
"b 	c #AE6215",
"c 	c #AD6111",
"d 	c #B46816",
"e 	c #B16518",
"f 	c #9C5516",
"g 	c #703D14",
"h 	c #24120B",
"i 	c #130B06",
"j 	c #663313",
"k 	c #944811",
"l 	c #994C12",
"m 	c #944A13",
"n 	c #853B09",
"o 	c #8B410C",
"p 	c #93470F",
"q 	c #9A4D10",
"r 	c #9E500F",
"s 	c #89430E",
"t 	c #964F12",
"u 	c #B3691A",
"v 	c #B26615",
"w 	c #AB5E14",
"x 	c #A5550F",
"y 	c #964E16",
"z 	c #522B11",
"A 	c #050302",
"B 	c #1F1007",
"C 	c #7B3D14",
"D 	c #994B13",
"E 	c #924911",
"F 	c #80390C",
"G 	c #7F360A",
"H 	c #8E410B",
"I 	c #A35511",
"J 	c #A75A10",
"K 	c #AB5D12",
"L 	c #A55611",
"M 	c #873B0B",
"N 	c #6D2908",
"O 	c #7C360D",
"P 	c #A05615",
"Q 	c #AD6113",
"R 	c #AF6615",
"S 	c #B96F1D",
"T 	c #B26411",
"U 	c #B26817",
"V 	c #774919",
"W 	c #090302",
"X 	c #21130B",
"Y 	c #874A1A",
"Z 	c #9B490F",
"` 	c #934911",
" .	c #863B09",
"..	c #893D0B",
"+.	c #984B0D",
"@.	c #A05110",
"#.	c #A1550F",
"$.	c #AE6416",
"%.	c #B06716",
"&.	c #A65911",
"*.	c #964910",
"=.	c #8F460F",
"-.	c #974D10",
";.	c #A45814",
">.	c #AF6416",
",.	c #AC6211",
"'.	c #B26814",
").	c #BA731B",
"!.	c #B56C18",
"~.	c #C2771C",
"{.	c #7B4C19",
"].	c #070204",
"^.	c #0A0606",
"/.	c #7E451A",
"(.	c #A25113",
"_.	c #9A4F11",
":.	c #9A4C0F",
"<.	c #A25311",
"[.	c #AA5F13",
"}.	c #AA6111",
"|.	c #A95D13",
"1.	c #A2560D",
"2.	c #AD6214",
"3.	c #BC741E",
"4.	c #B76F1C",
"5.	c #AD5F16",
"6.	c #A95E12",
"7.	c #B66D1B",
"8.	c #A95B13",
"9.	c #A15511",
"0.	c #AB6115",
"a.	c #B06915",
"b.	c #C68427",
"c.	c #B5701C",
"d.	c #BA6F18",
"e.	c #C47A21",
"f.	c #683F16",
"g.	c #593115",
"h.	c #AB5A16",
"i.	c #AB5D15",
"j.	c #9E5413",
"k.	c #8A400E",
"l.	c #974D11",
"m.	c #A55A11",
"n.	c #B66E1B",
"o.	c #BA711B",
"p.	c #AE6312",
"q.	c #AB6010",
"r.	c #AF6514",
"s.	c #BE7821",
"t.	c #A65C13",
"u.	c #B56E1C",
"v.	c #C68223",
"w.	c #B06A13",
"x.	c #B96F1C",
"y.	c #B46C18",
"z.	c #B5701A",
"A.	c #B6711A",
"B.	c #AA6016",
"C.	c #C3781D",
"D.	c #C58328",
"E.	c #432B17",
"F.	c #1B0D07",
"G.	c #864311",
"H.	c #AE5D14",
"I.	c #A25A16",
"J.	c #7E3A0E",
"K.	c #6E2B09",
"L.	c #753006",
"M.	c #944A0B",
"N.	c #B26518",
"O.	c #AA5F11",
"P.	c #B06514",
"Q.	c #B36715",
"R.	c #AE6412",
"S.	c #BD781E",
"T.	c #B6731D",
"U.	c #BC791F",
"V.	c #C98826",
"W.	c #C68625",
"X.	c #BE7A20",
"Y.	c #B46B14",
"Z.	c #AF6518",
"`.	c #904610",
" +	c #9E5A18",
".+	c #A9641B",
"++	c #AE6613",
"@+	c #CF8624",
"#+	c #9E6B25",
"$+	c #080505",
"%+	c #47200C",
"&+	c #813D10",
"*+	c #954D13",
"=+	c #904510",
"-+	c #5A2506",
";+	c #5D2909",
">+	c #7F3D13",
",+	c #A96318",
"'+	c #B16616",
")+	c #9D5213",
"!+	c #AA6018",
"~+	c #B46A18",
"{+	c #AE6311",
"]+	c #BE7A1E",
"^+	c #CC8B27",
"/+	c #D4962F",
"(+	c #C98A24",
"_+	c #C68526",
":+	c #C27E24",
"<+	c #BE771E",
"[+	c #B16A1A",
"}+	c #8E440D",
"|+	c #9A581C",
"1+	c #CD9132",
"2+	c #C68726",
"3+	c #C47E22",
"4+	c #B26E1D",
"5+	c #503B1B",
"6+	c #020201",
"7+	c #140A07",
"8+	c #6A320F",
"9+	c #8D4B17",
"0+	c #8C4815",
"a+	c #994C0E",
"b+	c #6B310D",
"c+	c #471E0B",
"d+	c #7A4012",
"e+	c #BB731F",
"f+	c #AF6315",
"g+	c #984C0E",
"h+	c #93490F",
"i+	c #974B10",
"j+	c #A5590D",
"k+	c #B8701B",
"l+	c #AE6715",
"m+	c #C9892B",
"n+	c #DAA039",
"o+	c #D89F37",
"p+	c #C38522",
"q+	c #C78324",
"r+	c #C48121",
"s+	c #9A5214",
"t+	c #97571B",
"u+	c #EAB149",
"v+	c #E1A73E",
"w+	c #D19131",
"x+	c #C78025",
"y+	c #8E6428",
"z+	c #341A0A",
"A+	c #A25719",
"B+	c #A35A17",
"C+	c #9F5914",
"D+	c #A95F18",
"E+	c #9B5216",
"F+	c #74380D",
"G+	c #9B5B16",
"H+	c #BA7118",
"I+	c #AD6013",
"J+	c #AD6015",
"K+	c #994F0F",
"L+	c #AB6111",
"M+	c #B9701C",
"N+	c #A85C15",
"O+	c #A65E13",
"P+	c #BE7F27",
"Q+	c #E1AC45",
"R+	c #D89D37",
"S+	c #C58325",
"T+	c #CC8A2B",
"U+	c #A0590E",
"V+	c #B17022",
"W+	c #D49633",
"X+	c #CA8D28",
"Y+	c #D39932",
"Z+	c #E3A83A",
"`+	c #BC8332",
" @	c #1C0F06",
".@	c #552C0E",
"+@	c #A75913",
"@@	c #A96415",
"#@	c #AC6516",
"$@	c #AB6214",
"%@	c #B46915",
"&@	c #B56B1B",
"*@	c #B56F18",
"=@	c #AE6513",
"-@	c #B36717",
";@	c #B26917",
">@	c #BC7620",
",@	c #B36A17",
"'@	c #AE6614",
")@	c #BA7322",
"!@	c #BE7A24",
"~@	c #BE7E20",
"{@	c #DBA039",
"]@	c #C78724",
"^@	c #BE7C22",
"/@	c #B26C1E",
"(@	c #BA7823",
"_@	c #C98829",
":@	c #D2922F",
"<@	c #CD902B",
"[@	c #C5882C",
"}@	c #C1812A",
"|@	c #341B08",
"1@	c #080707",
"2@	c #734318",
"3@	c #C07621",
"4@	c #C38325",
"5@	c #C48224",
"6@	c #BF7920",
"7@	c #AA5F12",
"8@	c #AB6313",
"9@	c #B36B18",
"0@	c #B46C1A",
"a@	c #AF6613",
"b@	c #B56A18",
"c@	c #C07921",
"d@	c #BB731C",
"e@	c #A85C0E",
"f@	c #B8701C",
"g@	c #C58129",
"h@	c #AC6619",
"i@	c #B36C1A",
"j@	c #EAB551",
"k@	c #DFAE48",
"l@	c #D1932F",
"m@	c #C88728",
"n@	c #D39832",
"o@	c #CF942D",
"p@	c #D59831",
"q@	c #C48526",
"r@	c #A05C19",
"s@	c #C57E25",
"t@	c #4E2D0E",
"u@	c #110F0B",
"v@	c #906226",
"w@	c #C88221",
"x@	c #CF912D",
"y@	c #CF902B",
"z@	c #C98928",
"A@	c #A86013",
"B@	c #AD6617",
"C@	c #AF6618",
"D@	c #A0560D",
"E@	c #AE6214",
"F@	c #B96E1B",
"G@	c #B66F1A",
"H@	c #B16916",
"I@	c #A95D10",
"J@	c #AB5F16",
"K@	c #A65B13",
"L@	c #A05511",
"M@	c #9B500F",
"N@	c #B6721E",
"O@	c #DFB151",
"P@	c #F7D36E",
"Q@	c #DAA33A",
"R@	c #CA8A27",
"S@	c #C68725",
"T@	c #CE902C",
"U@	c #CC8F2B",
"V@	c #C98A28",
"W@	c #B57320",
"X@	c #BA6C18",
"Y@	c #583313",
"Z@	c #17130F",
"`@	c #9D702D",
" #	c #BB7416",
".#	c #CD912F",
"+#	c #D7A339",
"@#	c #D49B34",
"##	c #BE7B1F",
"$#	c #BE7823",
"%#	c #9E540D",
"&#	c #9C5013",
"*#	c #A05412",
"=#	c #AB5E13",
"-#	c #B46918",
";#	c #BC761E",
">#	c #B36A18",
",#	c #994C11",
"'#	c #863D0A",
")#	c #863A06",
"!#	c #AD6821",
"~#	c #DFA741",
"{#	c #E0AF48",
"]#	c #EAC059",
"^#	c #EDBC51",
"/#	c #DBA138",
"(#	c #D0932C",
"_#	c #C88B28",
":#	c #CA8A29",
"<#	c #C27E1F",
"[#	c #C07E1F",
"}#	c #C37620",
"|#	c #583413",
"1#	c #14120F",
"2#	c #9A7332",
"3#	c #C98324",
"4#	c #DCA745",
"5#	c #F0C75D",
"6#	c #E1B44C",
"7#	c #CD902A",
"8#	c #CD8B2C",
"9#	c #A96114",
"0#	c #A8601B",
"a#	c #9C5313",
"b#	c #994C0D",
"c#	c #AB5E12",
"d#	c #BB761C",
"e#	c #BB741D",
"f#	c #94470B",
"g#	c #883C09",
"h#	c #96480D",
"i#	c #B16E1F",
"j#	c #E9B64C",
"k#	c #D59A30",
"l#	c #CA8E29",
"m#	c #D29735",
"n#	c #CB8E2B",
"o#	c #DCA33C",
"p#	c #DBA23B",
"q#	c #CE912A",
"r#	c #C17F22",
"s#	c #B26F1C",
"t#	c #C47821",
"u#	c #5C3913",
"v#	c #08080A",
"w#	c #927138",
"x#	c #E8A83E",
"y#	c #D59E3B",
"z#	c #E1B54D",
"A#	c #ECC25A",
"B#	c #E5B546",
"C#	c #D9A036",
"D#	c #B06817",
"E#	c #AE6918",
"F#	c #B67123",
"G#	c #9D5010",
"H#	c #954809",
"I#	c #94490E",
"J#	c #B9751F",
"K#	c #C68326",
"L#	c #BA7423",
"M#	c #B57121",
"N#	c #D09739",
"O#	c #EAB74D",
"P#	c #BE7B20",
"Q#	c #BC741D",
"R#	c #BA771E",
"S#	c #C07E24",
"T#	c #CF902F",
"U#	c #D3942E",
"V#	c #B16A19",
"W#	c #9F5511",
"X#	c #B5671B",
"Y#	c #4C2C11",
"Z#	c #6D5125",
"`#	c #DC9C35",
" $	c #C3872A",
".$	c #E8BD58",
"+$	c #E9C158",
"@$	c #DBA43E",
"#$	c #DAA237",
"$$	c #D0942F",
"%$	c #D79936",
"&$	c #CE902E",
"*$	c #BF7C20",
"=$	c #99510F",
"-$	c #9C5414",
";$	c #C5872A",
">$	c #E1AB3F",
",$	c #DCA740",
"'$	c #D09933",
")$	c #E5B043",
"!$	c #D09337",
"~$	c #924D13",
"{$	c #89420A",
"]$	c #B87421",
"^$	c #C58327",
"/$	c #B6721B",
"($	c #C28324",
"_$	c #C58625",
":$	c #AC6314",
"<$	c #B06B19",
"[$	c #BD7B29",
"}$	c #311B0A",
"|$	c #412D17",
"1$	c #BA7D30",
"2$	c #CB8E2E",
"3$	c #E3B049",
"4$	c #D49E37",
"5$	c #C58326",
"6$	c #D89E37",
"7$	c #DEAB3D",
"8$	c #D9A138",
"9$	c #CB8F2B",
"0$	c #D39730",
"a$	c #D79D38",
"b$	c #D49C34",
"c$	c #D69D37",
"d$	c #D4993B",
"e$	c #CF9433",
"f$	c #DDA438",
"g$	c #C2862F",
"h$	c #773407",
"i$	c #6F2C07",
"j$	c #97531B",
"k$	c #B36F21",
"l$	c #B26B19",
"m$	c #BD7821",
"n$	c #C17F23",
"o$	c #C48124",
"p$	c #A36C25",
"q$	c #120804",
"r$	c #110907",
"s$	c #784216",
"t$	c #C37E23",
"u$	c #D39A2E",
"v$	c #D59934",
"w$	c #CD8F32",
"x$	c #BF7D26",
"y$	c #BF7D22",
"z$	c #C28126",
"A$	c #CA8C2C",
"B$	c #E2AD3C",
"C$	c #D69B37",
"D$	c #A65F15",
"E$	c #B46F1D",
"F$	c #D39334",
"G$	c #9B5715",
"H$	c #752E07",
"I$	c #8C4716",
"J$	c #8A440F",
"K$	c #954D11",
"L$	c #A75C16",
"M$	c #AA6017",
"N$	c #A55E12",
"O$	c #B56F1E",
"P$	c #C17F24",
"Q$	c #C1731C",
"R$	c #6F4318",
"S$	c #553515",
"T$	c #C57E24",
"U$	c #CD8D28",
"V$	c #D0932E",
"W$	c #D2982F",
"X$	c #B26D19",
"Y$	c #9F510B",
"Z$	c #B7711A",
"`$	c #D0902E",
" %	c #B46E1B",
".%	c #A86014",
"+%	c #BE7B25",
"@%	c #B26F1E",
"#%	c #A66119",
"$%	c #B16C1D",
"%%	c #AF6817",
"&%	c #A15714",
"*%	c #8B3E0B",
"=%	c #823B0E",
"-%	c #6C2A06",
";%	c #7F370B",
">%	c #91440F",
",%	c #91450F",
"'%	c #9D540F",
")%	c #B2681A",
"!%	c #B36613",
"~%	c #A35B17",
"{%	c #342011",
"]%	c #100704",
"^%	c #A06620",
"/%	c #CD8621",
"(%	c #BA741D",
"_%	c #CC892C",
":%	c #C17E24",
"<%	c #B9761F",
"[%	c #C88627",
"}%	c #C48127",
"|%	c #954D14",
"1%	c #873E0B",
"2%	c #8C400E",
"3%	c #8F4511",
"4%	c #984F11",
"5%	c #A15411",
"6%	c #954812",
"7%	c #80360B",
"8%	c #853E0D",
"9%	c #813E0F",
"0%	c #763007",
"a%	c #853B0C",
"b%	c #893E0E",
"c%	c #9B5113",
"d%	c #A65A11",
"e%	c #AC5710",
"f%	c #734219",
"g%	c #412812",
"h%	c #B66A1C",
"i%	c #B4681A",
"j%	c #B46C1B",
"k%	c #AD6716",
"l%	c #B7731E",
"m%	c #BD7A22",
"n%	c #A05710",
"o%	c #8A3C0C",
"p%	c #8E4210",
"q%	c #8F420B",
"r%	c #92440F",
"s%	c #873C0A",
"t%	c #823808",
"u%	c #944810",
"v%	c #843A0A",
"w%	c #7D3409",
"x%	c #8B4510",
"y%	c #753008",
"z%	c #843909",
"A%	c #8C410B",
"B%	c #8B420B",
"C%	c #9D4F0D",
"D%	c #945017",
"E%	c #1D100A",
"F%	c #633312",
"G%	c #9C4D10",
"H%	c #AB6318",
"I%	c #C37C24",
"J%	c #BD7620",
"K%	c #A15612",
"L%	c #90430C",
"M%	c #90410E",
"N%	c #9F5110",
"O%	c #9C4E0F",
"P%	c #91440E",
"Q%	c #90440F",
"R%	c #8B400B",
"S%	c #8C410D",
"T%	c #853C0A",
"U%	c #8D410D",
"V%	c #7D3508",
"W%	c #722D08",
"X%	c #863A0A",
"Y%	c #853F0F",
"Z%	c #823A0C",
"`%	c #A15416",
" &	c #42240D",
".&	c #0B0404",
"+&	c #663110",
"@&	c #AD601B",
"#&	c #AE6517",
"$&	c #AD6014",
"%&	c #9A4B0E",
"&&	c #93440E",
"*&	c #8F430C",
"=&	c #90420D",
"-&	c #8E420D",
";&	c #893D0A",
">&	c #89400C",
",&	c #90430E",
"'&	c #974A10",
")&	c #883D08",
"!&	c #8A3F0B",
"~&	c #8E440E",
"{&	c #7E360A",
"]&	c #863D0B",
"^&	c #87400F",
"/&	c #894211",
"(&	c #532D12",
"_&	c #0D0703",
":&	c #6E3C15",
"<&	c #A45111",
"[&	c #A34F0E",
"}&	c #9E4F0E",
"|&	c #954810",
"1&	c #91430E",
"2&	c #8D400D",
"3&	c #873B0A",
"4&	c #7C3407",
"5&	c #7B3309",
"6&	c #853C0C",
"7&	c #924511",
"8&	c #96490F",
"9&	c #964A0E",
"0&	c #954A0E",
"a&	c #93470E",
"b&	c #8A3E0A",
"c&	c #8F400E",
"d&	c #884113",
"e&	c #4A2711",
"f&	c #46230D",
"g&	c #8E4714",
"h&	c #AA5A12",
"i&	c #A1510F",
"j&	c #853B0A",
"k&	c #7F370A",
"l&	c #732F08",
"m&	c #712D07",
"n&	c #7E3508",
"o&	c #863C0A",
"p&	c #90460E",
"q&	c #91460E",
"r&	c #8F410B",
"s&	c #96450D",
"t&	c #96470E",
"u&	c #773A13",
"v&	c #32170C",
"w&	c #1D0E09",
"x&	c #5E3213",
"y&	c #954F16",
"z&	c #A55513",
"A&	c #9B490C",
"B&	c #97460D",
"C&	c #8B3F0B",
"D&	c #8C400B",
"E&	c #90420E",
"F&	c #863908",
"G&	c #96460E",
"H&	c #9F4D0F",
"I&	c #994D13",
"J&	c #834415",
"K&	c #512B11",
"L&	c #0F0705",
"M&	c #20120B",
"N&	c #4A2B0F",
"O&	c #6A3911",
"P&	c #884715",
"Q&	c #985116",
"R&	c #995116",
"S&	c #904A14",
"T&	c #874414",
"U&	c #7A3E14",
"V&	c #63340F",
"W&	c #3E230D",
"X&	c #160C06",
"Y&	c #030202",
"Z&	c #120905",
"`&	c #1A0E05",
" *	c #1D1006",
".*	c #1B0F06",
"+*	c #180D06",
"@*	c #100A07",
"#*	c #020205",
"$*	c #020102",
". . . . . . . . . + @ # . . . . . . . . $ % . . . . . . . . . . ",
". . . . . & . + # * . . = - ; > , ' ) ! . . . # . . . . . . . . ",
". . . . . # . * # ~ { ] ^ / ( _ : < [ } | 1 * . # . . . . . . . ",
". . . . . # . 2 3 4 5 6 7 8 9 0 a b c d e f g h . . . . . . . . ",
". . . . + # i j k l m n o p q r 0 s t u v w x y z A . $ . . . . ",
". . . # . B C D E F G H I J K L M N O P Q R S T U V W . . . . . ",
". . . . X Y Z `  ...+.@.#.$.%.&.*.=.-.;.>.,.'.).!.~.{.].. . . . ",
". . . ^./.(._.:.<.[.}.|.1.2.3.4.5.6.7.8.9.0.a.b.c.d.e.f.. # # . ",
". . # g.h.i.j.k.l.m.n.o.p.q.r.s.t.u.v.w.7.x.y.z.A.B.C.D.E.. + . ",
"+ . F.G.H.I.J.K.L.M.N.O.P.Q.R.S.T.U.V.W.X.Y.Z.`. +.+++@+#+$+. . ",
"# # %+&+*+=+-+;+>+,+'+)+!+~+{+]+^+/+(+_+:+<+[+}+|+1+2+3+4+5+. 6+",
". 7+8+9+0+a+b+c+d+e+f+g+h+i+j+k+l+m+n+o+p+q+r+s+t+u+v+w+x+y+. . ",
". z+A+B+C+D+E+F+G+H+I+J+K+l.L+M+N+O+P+Q+R+S+T+U+V+W+X+Y+Z+`+ @. ",
"# .@+@@@#@$@%@&@P.*@=@-@;@>@,@;@'@)@!@~@{@]@^@/@(@_@:@<@[@}@|@. ",
"1@2@3@4@5@6@7@8@9@0@a@b@c@d@e@w f@g@h@i@j@k@l@m@n@o@p@q@r@s@t@. ",
"u@v@w@x@y@z@A@B@C@D@E@F@G@H@I@J@K@L@M@N@O@P@Q@R@S@T@U@V@W@X@Y@. ",
"Z@`@ #.#+#@###$#%#&#*#=#-#;#>#,#'#)#!#~#{#]#^#/#(#_#:#<#[#}#|#. ",
"1#2#3#4#5#6#7#8#9#0#a#b#c#d#e#f#g#h#i#j#k#l#m#n#o#p#q#r#s#t#u#. ",
"v#w#x#y#z#A#B#C#D#E#F#G#H#I#J#K#L#M#N#O#P#Q#R#S#S#T#U#V#W#X#Y#. ",
". Z#`# $.$+$@$#$$$%$&$*$=$-$;$>$,$'$)$!$~${$]$^$/$($_$:$<$[$}$. ",
". |$1$2$3$4$5$6$7$8$9$0$a$b$c$d$e$f$g$h$i$j$k$c.l$m$n$o$3#p$q$. ",
"# r$s$t$u$U@v$w$x$y$m+z$A$B$C$D$E$F$G$H$I$J$K$L$M$N$O$P$Q$R$. $ ",
"6+. S$T$U$V$W$X$Y$Z$`$ %.%+%@%#%$%%%&%*%=%-%;%>%,%'%)%!%~%{%. % ",
"# . ]%^%/%(%_%:%<%[%}%~%|%1%2%3%4%5%6%7%8%9%0%a%b%c%d%e%f%2 # . ",
". . . g%h%i%j%k%l%m%n%o%p%q%r%s%t%u%v%w%=+x%y%z%A%B%C%D%E%. & . ",
". . . # F%G%H%I%J%K%L%M%N%O%P%Q%t%R%S%T%U%V%W%X%Y%Z%`% &. 2 $ . ",
". . # . .&+&@&#&$&%&&&*&=&-&..;&>&,&'&)&!&~&{&]&^&/&(&# . & & . ",
". . . . . _&:&<&[&}&|&1&2&3&4&5&6&7&8&9&0&a&b&c&d&e&# # . . . . ",
". . . . . . # f&g&h&i&U%j&k&l&m&n&o&p&q&r&s&t&u&v&2 . + . . . . ",
". . . . . . . . w&x&y&z&A&B&C&D&E&F&G&H&I&J&K&L&. . + . . . . . ",
". . . . . . . . . # M&N&O&P&Q&R&S&T&U&V&W&X&. . . . . . . . . . ",
". . . . . . . . $ # . . Y&Z&`& *.*+*@*#*. . $*+ . . . . . . . . "};
